<?xml version="1.0" encoding="UTF-8"?>
<svg xmlns="http://www.w3.org/2000/svg" version="1.1" viewBox="0 0 174 288">
  <defs>
    <style>
      .cls-1 {
        fill: #583f98;
      }
    </style>
  </defs>
  <!-- Generator: Adobe Illustrator 28.7.1, SVG Export Plug-In . SVG Version: 1.2.0 Build 142)  -->
  <g>
    <g id="Layer_1">
      <g>
        <g>
          <path class="cls-1" d="M16.05,287.7c-3.77-1.11-6.31-2.96-7.68-5.64-.81,2.5-3.66,4.59-7.7,5.64l-.89-1.2c2.87-.69,4.4-1.41,5.86-2.76.87-.81,1.44-1.78,1.7-2.92.15-.65.2-1.5.2-2.87v-.28h1.41l-.09,2.52c1.3,3.2,3.88,5.24,8.01,6.27l-.83,1.24ZM4.24,278.13c-1.35-1.78-1.92-2.4-3.33-3.63,1.5-1.72,1.98-2.35,2.72-3.68l1.22.57c-.65,1.17-.98,1.61-2.22,3.07,1.33,1.26,1.81,1.76,2.7,2.85l-1.09.81ZM2.93,278.87c.81,1.09,1.24,1.78,2.11,3.37l-1.18.7c-.85-1.65-1.26-2.3-2.09-3.38l1.17-.69ZM9.59,277.69c-1.18-1.41-1.87-2.05-3.29-3.18,1.33-1.4,1.87-2.13,2.77-3.7l1.26.59c-.89,1.39-1.39,2.05-2.28,3.05,1.09.89,1.57,1.33,2.66,2.44l-1.13.8ZM11.44,282.22c.8-.8,1.63-2.04,2.26-3.35l1.24.65c-.72,1.44-1.61,2.78-2.39,3.53l-1.11-.83ZM14.71,278c-.85-1.26-1.46-1.92-3.18-3.51,1.46-1.57,1.98-2.28,2.78-3.72l1.24.59c-.83,1.37-1.35,2.05-2.27,3.09,1.18,1.07,1.72,1.65,2.61,2.83l-1.17.72Z"/>
          <path class="cls-1" d="M27.07,273.89h1.35v.96h4.98v1.18h-4.98v1.22h6.09v1.19h-6.09v1.26h7.86v1.18h-17.04v-1.18h7.83v-1.26h-6.09v-1.19h6.09v-1.22h-5v-1.18h5v-.96ZM21.06,273.3v2.31h-1.35v-3.5h7.36v-1.33h1.35v1.33h7.37v3.5h-1.35v-2.31h-13.38ZM32.53,286.9h-9.57v.8h-1.33v-5.64h12.23v5.64h-1.33v-.8ZM22.97,283.24v2.48h9.57v-2.48h-9.57Z"/>
          <path class="cls-1" d="M38.75,282.5c1.87-1.76,2.87-3.26,3.81-5.68h-3.61v-1.22h3.66v-2.63c-1.22.2-1.46.24-2.94.39l-.69-1.2c3.79-.46,4.74-.65,6.96-1.41l.83,1.09c-1.41.48-1.63.56-2.89.85v2.9h2.7v1.22h-2.57c.96,1.68,1.5,2.4,2.66,3.57l-.78,1.02c-.85-1.06-1.11-1.45-2.02-2.96v9.25h-1.28v-8.55c-1.07,2.19-1.46,2.8-2.76,4.31l-1.11-.96ZM53.85,270.79v10.6l1.94-.26.11,1.24-2.05.26v5.07h-1.33v-4.87l-6.35.78-.18-1.26,6.53-.76v-10.8h1.33ZM50.16,280.3c-1.11-1.15-1.76-1.68-3.2-2.66l.87-1.07c1.5,1.04,2.22,1.63,3.27,2.66l-.94,1.07ZM50.57,276.11c-.96-1-1.61-1.52-3.26-2.63l.94-1.02c1.52,1.05,2.18,1.59,3.2,2.55l-.89,1.09Z"/>
          <path class="cls-1" d="M67.26,279.5c1.24-.52,1.96-.92,2.68-1.55h-8.2v-1.22h10.36v1.05c-1.44,1.31-2.61,2.07-4.33,2.83v.48h7.64v1.22h-7.64v3.54c.02,1.48-.39,1.83-2.13,1.85h-2.02l-.44-1.41,1.09.09c.35.02.87.04,1.26.04.72,0,.91-.15.91-.72v-3.39h-8.03v-1.22h8.03v-1.89l.81.29ZM69.96,273.97c.61-.91.91-1.44,1.78-3.16l1.28.67c-.81,1.46-1.07,1.91-1.48,2.5h3.22v4.2h-1.35v-2.98h-12.97v2.98h-1.35v-4.2h10.88ZM61.9,273.84c-.46-.81-.67-1.18-1.44-2.37l1.17-.61c.72,1,.93,1.35,1.48,2.35l-1.2.63ZM66.3,273.86c-.35-.91-.55-1.31-1.22-2.37l1.33-.59c.59,1,.79,1.42,1.2,2.35l-1.31.61Z"/>
          <path class="cls-1" d="M80.27,287.7h-1.35v-16.3h15.13v16.3h-1.33v-.8h-12.45v.8ZM80.27,285.68h12.45v-13.06h-12.45v13.06ZM86.98,279.37v3.61h4.68v1.22h-10.36v-1.22h4.39v-3.61h-3.48v-1.22h3.48v-2.79h-3.92v-1.22h9.43v1.22h-4.22v2.79h3.79v1.22h-3.79ZM89.09,279.85c.7.74.98,1.11,1.61,2.16l-1.06.65c-.52-.96-.83-1.41-1.52-2.13l.96-.68Z"/>
          <path class="cls-1" d="M103.01,272.38c-.37,1.69-.65,2.54-1.59,4.85.94,1.65,1.57,3.63,1.57,4.96,0,.93-.26,1.61-.74,1.94-.35.26-.74.33-2.05.43l-.46-1.35c.33.02.63.04.89.04.69,0,1.04-.33,1.04-1,0-1.3-.5-2.89-1.57-4.99.76-1.67,1.05-2.55,1.52-4.63h-2.02v15.08h-1.35v-16.3h4.78v.98ZM102.82,278.57c.94-.55,1.28-.8,1.85-1.31-.45-.5-.54-.61-1.19-1.17-.22.3-.28.33-.55.67l-.81-.8c1.39-1.41,2.2-2.87,2.9-5.22l1.09.33c-.09.32-.11.37-.2.63h2.57v.93c-.72,3.03-2.29,5.27-4.85,6.86l-.81-.92ZM106.41,283.01c-.81,1.8-1.39,2.57-2.68,3.7l-1.13-.81c1.37-1.13,1.89-1.8,2.68-3.4l1.13.52ZM103.69,281.72v-1.22h10.4v1.22h-4.72v4.46c.02,1.15-.39,1.48-1.93,1.52h-1.15l-.39-1.26c.54.02,1.05.04,1.46.04.5,0,.65-.11.65-.48v-4.27h-4.33ZM104.13,275.26c.65.59.74.69,1.3,1.26.33-.41.39-.48.72-.98-.59-.55-.7-.63-1.44-1.18-.26.44-.29.52-.57.9ZM105.15,273.49c.74.54.85.63,1.44,1.17.35-.8.41-.93.63-1.76h-1.79l-.28.59ZM105.97,277.69h5.7v1.22h-5.7v-1.22ZM110,271.03c.39,1.85.87,3.14,1.52,4.25.59-.79.89-1.37,1.2-2.42h-1.85v-1.18h3.2v.83c-.5,1.7-.89,2.54-1.82,3.78.56.72,1,1.13,2.35,2.13l-.93,1.07c-2.62-2.09-4.16-4.7-4.85-8.21l1.16-.24ZM111.98,282.48c.48,1.02,1.72,2.66,2.54,3.37l-1.09.94c-1.33-1.46-1.85-2.16-2.65-3.74l1.2-.57Z"/>
          <path class="cls-1" d="M119.07,278.87c-.26.5-.44.81-.92,1.61l-.7-1.28c1.5-2.07,2.24-4.01,2.55-6.61h-2.37v-1.22h6.61v1.22h-2.94c-.22,1.76-.52,2.85-1.11,4.29h3.79v8.55h-3.59v.59h-1.31v-7.16ZM122.67,284.22v-6.1h-2.3v6.1h2.3ZM124.17,286.83c1.79-1.85,2.42-3.81,2.61-7.99h-2.02v-1.22h2.04v-5h-1.61v-1.22h8.95v1.22h-1.7v5h2.16v1.22h-2.16v8.86h-1.33v-8.86h-2.98c-.19,4.33-1,6.9-2.79,8.77l-1.17-.78ZM131.11,277.61v-5h-2.96v5h2.96Z"/>
          <path class="cls-1" d="M149.43,279.35v5.9c-.02.66.17.85.87.87h1.44c.79-.05.89-.13.98-.89l.13-2.04,1.28.5-.19,2.09c-.13,1.14-.59,1.5-2,1.55h-2.11c-1.28,0-1.78-.52-1.76-1.81v-4.96h-3.65c-.42,2.17-.9,3.11-2.31,4.55-1.2,1.13-2.22,1.76-4.05,2.55l-.87-1.18c1.61-.55,2.59-1.11,3.72-2.09,1.33-1.26,1.72-1.92,2.13-3.83h-4.94v-1.22h5.12c.09-1,.09-1.2.13-2.46h1.33c-.02,1.31-.04,1.65-.09,2.46h4.83ZM147.97,275.78c-.02.67.17.85.87.85h1.05c.54,0,.67-.15.74-.87l.07-.9,1.28.54-.11.92c-.17,1.2-.59,1.55-1.87,1.54h-1.63c-1.28.02-1.79-.5-1.76-1.79v-2.5h-2.74c-.5,2.52-1.81,3.98-4.37,4.85l-.79-1.16c2.28-.74,3.35-1.78,3.81-3.68h-3.52v2.42h-1.35v-3.64h7.27v-1.55h1.35v1.55h7.42v3.22h-1.35v-2h-4.38v2.22Z"/>
          <path class="cls-1" d="M159.1,280.8c-.09,3.26-.37,4.53-1.54,6.81l-1.13-.85c1.07-2.02,1.39-3.68,1.4-7.73v-4.27h6.62v6.05h-5.37ZM165.12,272.89h-8.14v-1.22h8.14v1.22ZM159.2,275.97v3.61h3.92v-3.61h-3.92ZM167.02,272.21c2.22-.2,3.48-.48,5.52-1.26l.76,1.16c-2,.76-3.02.98-5.88,1.32v3.12h6.29v1.22h-1.94v9.92h-1.33v-9.92h-3.02c-.13,4.97-1,7.27-3.79,9.92l-1.15-.85c2.9-2.74,3.55-4.55,3.59-10.1v-4.7l.96.17Z"/>
        </g>
        <g>
          <path class="cls-1" d="M5.58,226.39H.39v-38.26h5.19v38.26Z"/>
          <path class="cls-1" d="M62.67,226.39h-5.19v-38.26h5.19v38.26Z"/>
          <path class="cls-1" d="M48.57,226.39h-7.08l-11.41-15.93h-6.79v15.93h-5.16v-38.26h12.44c9.15,0,13.82,3.84,13.82,11.26,0,3.74-1.48,6.74-4.33,8.7-1.28.89-2.31,1.28-4.42,1.68l12.93,16.62ZM29.69,205.59c6.64,0,9.3-1.77,9.3-6.25s-2.76-6.34-8.75-6.34h-6.94v12.59h6.39Z"/>
          <path class="cls-1" d="M85.53,188.13c13.52,0,20.46,6.34,20.46,18.64s-7.03,19.62-19.97,19.62h-10.62v-38.26h10.13ZM86.02,221.53c9.74,0,14.61-4.87,14.61-14.65,0-9.25-5.02-13.87-15.1-13.87h-4.97v28.53h5.46Z"/>
          <path class="cls-1" d="M118.25,214.2c.59,5.55,3.29,8.07,8.65,8.07,2.76,0,4.38-.59,7.43-2.65l2.6,3.98c-3.39,2.46-6.1,3.29-10.32,3.29-8.7,0-13.72-5.36-13.72-14.65s4.87-14.85,12.84-14.85c5.56,0,9.34,2.75,10.97,8.07.69,2.12.93,4.28.98,8.75h-19.43ZM132.12,209.82c-.54-5.61-2.41-7.82-6.64-7.82s-6.49,2.51-7.28,7.82h13.92Z"/>
          <path class="cls-1" d="M169.43,196c-3.73-2.65-6.34-3.54-10.18-3.54-5.11,0-7.92,1.92-7.92,5.51,0,1.57.44,2.66,1.48,3.54,1.13.99,4.42,2.16,8.11,2.95,8.66,1.72,12.24,5.02,12.24,11.12,0,6.98-5.55,11.31-14.5,11.31-5.8,0-9.59-1.23-14.31-4.72l2.85-4.67c4.18,3.34,7.43,4.57,12.05,4.57,5.36,0,8.56-2.26,8.56-6.1,0-3.39-2.11-4.97-8.65-6.54-5.26-1.23-8.46-2.51-10.33-4.18-1.97-1.72-2.9-3.88-2.9-6.74,0-6.69,5.26-10.87,13.62-10.87,4.97,0,8.36,1.03,12.35,3.69l-2.46,4.67Z"/>
        </g>
        <g>
          <path class="cls-1" d="M86.77,39.92C69.01,17.23,35.06.09,35.06.09c21.16,18.29,33.08,38.42,36.79,53.38,2.83,11.37,5.85,16.02,10.99,17.35t0,0c.35.09,1.86.43,3.91.43s3.57-.35,3.91-.44h0c5.14-1.33,8.16-5.98,11-17.35,3.71-14.96,15.64-35.09,36.8-53.38,0,0-33.95,17.14-51.71,39.84Z"/>
          <path class="cls-1" d="M133.24,62.1c6.47-10.45-.84-18.97,12.98-36.45,0,0-24.57,10.71-30.49,24.4-4.16,9.59-1.06,15.67,1.69,17.51,3.82,2.53,10.63,2.94,15.83-5.46"/>
          <path class="cls-1" d="M40.3,62.1c-6.47-10.45.84-18.97-12.97-36.45,0,0,24.58,10.71,30.49,24.4,4.16,9.59,1.05,15.67-1.68,17.51-3.82,2.53-10.63,2.94-15.84-5.46"/>
          <path class="cls-1" d="M86.76,76.39c-16.82,0-30.32,14.63-30.46,32.67-.12,16.27,10.58,26.22,17.81,29.72,6.14,2.98,9.44,5.78,9.02,12.17-1.19,10.18-5.49,19.45-11.98,26.89,27.28-12.88,46.04-36.53,46.04-67.79,0,0,.02-.66.02-1,0-18.05-13.64-32.67-30.46-32.67Z"/>
          <path class="cls-1" d="M173.12,117.68c-.48-22.84-16.34-41.19-35.85-41.19-6.38,0-12.7,2.77-17.88,6.21,4.74,6.8,8.02,14.27,8.45,23.98.53,11.91-1.94,22.31-3.45,27.44-.06.21-.49,2.04.1,3.53.53,1.35,1.54,2.19,1.76,2.41,2.02,1.94,6.45,3.76,10.66,5.21,5.08,1.75,9.8,4.12,9.66,10.07-.13,5.71-2.43,14.7-7.86,22.52,18.6-11.36,31.33-30.4,33.93-51.99.33-2.32.51-4.7.51-7.12,0-.26-.03-1.06-.03-1.06Z"/>
          <path class="cls-1" d="M54.16,82.67c-4.79-3.04-6.87-4.38-11.31-5.5-4.53-1.15-9.33-1.28-14.12-.49C11.73,78.67-.79,94.68.51,113.2c.88,12.48,7.81,23.01,17.47,28.48h-.01c4.94,2.76,9.33,6.23,8.35,12.99-1.82,8.91-6.3,16.82-12.56,22.99,27.75-10.16,38.55-28.84,41.38-36.46.03-.09.54-1.33.37-2.72-.15-1.33-.66-2.06-.74-2.18-5.64-8.14-9.13-16.19-9.13-27.24,0-9.98,3.25-19.11,8.53-26.4Z"/>
        </g>
        <g>
          <g>
            <rect class="cls-1" x=".41" y="237" width="1.16" height="8.5"/>
            <rect class="cls-1" x="127.94" y="237" width="1.16" height="8.5"/>
            <path class="cls-1" d="M4.9,245.5h-1.09v-6.33h1.07v.53c.66-.48,1.11-.64,1.78-.64.84,0,1.51.32,1.86.93.25.43.35.91.35,1.78v3.74h-1.09v-3.71c0-.67-.06-1.01-.21-1.25-.18-.31-.53-.46-1-.46-.63,0-1.14.22-1.67.74v4.68Z"/>
            <path class="cls-1" d="M13.71,240.17h-1.59v3.55c0,.67.14.86.69.86.28,0,.46-.02.81-.12l.13,1.02c-.34.09-.6.13-1,.13-1.22,0-1.71-.53-1.71-1.83v-3.61h-1.25v-1h1.25v-1.94h1.09v1.94h1.59v1Z"/>
            <path class="cls-1" d="M15.87,242.79c.13,1.23.73,1.79,1.92,1.79.61,0,.97-.13,1.65-.59l.58.88c-.75.55-1.35.73-2.29.73-1.93,0-3.04-1.19-3.04-3.25s1.08-3.29,2.85-3.29c1.23,0,2.08.61,2.43,1.79.15.47.21.95.22,1.94h-4.31ZM18.95,241.82c-.12-1.24-.53-1.73-1.47-1.73s-1.44.56-1.61,1.73h3.09Z"/>
            <path class="cls-1" d="M25.34,240.16c-.18-.02-.25-.04-.4-.04-.52,0-.86.11-1.26.42-.39.29-.63.57-.9,1.09v3.87h-1.09v-6.33h1.07v1.08c.57-.83,1.21-1.19,2.17-1.19.21,0,.28,0,.51.02l-.09,1.07Z"/>
            <path class="cls-1" d="M27.67,245.5h-1.09v-6.33h1.07v.53c.67-.48,1.11-.64,1.78-.64.84,0,1.51.32,1.87.93.25.43.35.91.35,1.78v3.74h-1.09v-3.71c0-.67-.06-1.01-.21-1.25-.19-.31-.54-.46-1.01-.46-.63,0-1.14.22-1.67.74v4.68Z"/>
            <path class="cls-1" d="M33.36,239.51c.81-.32,1.44-.45,2.2-.45,1.66,0,2.39.8,2.39,2.59v3.85h-1.07v-.5c-.56.44-1.06.6-1.85.6-1.39,0-2.25-.78-2.25-2.02,0-1.4,1.12-2.07,3.41-2.07h.67c-.04-1.05-.39-1.43-1.36-1.43-.65,0-1.17.13-1.87.46l-.27-1.04ZM36.87,242.52h-.67c-1.63,0-2.27.32-2.27,1.12,0,.63.4.95,1.21.95.76,0,1.2-.16,1.72-.61v-1.46Z"/>
            <path class="cls-1" d="M42.88,240.17h-1.6v3.55c0,.67.14.86.69.86.28,0,.46-.02.81-.12l.13,1.02c-.34.09-.6.13-1,.13-1.22,0-1.72-.53-1.72-1.83v-3.61h-1.25v-1h1.25v-1.94h1.09v1.94h1.6v1Z"/>
            <path class="cls-1" d="M45.75,237.96h-1.42v-1.34h1.42v1.34ZM45.58,245.5h-1.09v-6.33h1.09v6.33Z"/>
            <path class="cls-1" d="M52.9,242.33c0,2.09-1.05,3.27-2.94,3.27s-2.95-1.15-2.95-3.3c0-2.04,1.09-3.24,2.93-3.24s2.95,1.19,2.95,3.27ZM48.16,242.37c0,1.5.58,2.21,1.8,2.21s1.79-.71,1.79-2.25-.57-2.25-1.79-2.25-1.8.7-1.8,2.29Z"/>
            <path class="cls-1" d="M55.27,245.5h-1.09v-6.33h1.07v.53c.66-.48,1.11-.64,1.78-.64.84,0,1.51.32,1.87.93.25.43.35.91.35,1.78v3.74h-1.09v-3.71c0-.67-.05-1.01-.21-1.25-.19-.31-.54-.46-1.01-.46-.63,0-1.13.22-1.67.74v4.68Z"/>
            <path class="cls-1" d="M61.12,239.51c.81-.32,1.44-.45,2.21-.45,1.66,0,2.39.8,2.39,2.59v3.85h-1.07v-.5c-.55.44-1.06.6-1.86.6-1.39,0-2.25-.78-2.25-2.02,0-1.4,1.12-2.07,3.41-2.07h.67c-.04-1.05-.39-1.43-1.37-1.43-.65,0-1.17.13-1.87.46l-.27-1.04ZM64.63,242.52h-.67c-1.62,0-2.27.32-2.27,1.12,0,.63.4.95,1.21.95.77,0,1.2-.16,1.73-.61v-1.46Z"/>
            <path class="cls-1" d="M69.86,245.52c-.29.06-.55.09-.92.09-.99,0-1.34-.44-1.34-1.67v-7.48h1.09v7.42c0,.6.08.7.5.7.18,0,.31-.02.57-.08l.1,1.01Z"/>
            <path class="cls-1" d="M80.91,245.5h-1.57l-2.53-3.54h-1.51v3.54h-1.15v-8.5h2.76c2.03,0,3.06.85,3.06,2.5,0,.83-.33,1.5-.96,1.93-.29.19-.52.28-.98.37l2.87,3.69ZM76.72,240.88c1.47,0,2.06-.39,2.06-1.38s-.61-1.41-1.94-1.41h-1.54v2.79h1.42Z"/>
            <path class="cls-1" d="M82.55,242.79c.13,1.23.73,1.79,1.92,1.79.61,0,.97-.13,1.65-.59l.58.88c-.75.55-1.35.73-2.29.73-1.93,0-3.04-1.19-3.04-3.25s1.08-3.29,2.85-3.29c1.23,0,2.07.61,2.43,1.79.15.47.21.95.22,1.94h-4.31ZM85.63,241.82c-.12-1.24-.54-1.73-1.48-1.73s-1.44.56-1.61,1.73h3.09Z"/>
            <path class="cls-1" d="M92.03,240.63c-.63-.41-1.07-.55-1.66-.55-.74,0-1.16.29-1.16.78,0,.46.27.66,1.31.93.84.22,1.18.35,1.52.59.42.29.62.72.62,1.27,0,1.22-.93,1.95-2.47,1.95-.95,0-1.65-.21-2.35-.74l.49-.97c.69.51,1.17.69,1.93.69.89,0,1.32-.28,1.32-.86,0-.5-.29-.7-1.32-.95-1.56-.4-2.14-.89-2.14-1.85,0-1.12.92-1.86,2.34-1.86.78,0,1.28.15,2.05.61l-.49.96Z"/>
            <path class="cls-1" d="M94.91,242.79c.13,1.23.73,1.79,1.92,1.79.61,0,.97-.13,1.65-.59l.58.88c-.76.55-1.35.73-2.29.73-1.93,0-3.04-1.19-3.04-3.25s1.08-3.29,2.85-3.29c1.23,0,2.07.61,2.43,1.79.15.47.21.95.22,1.94h-4.31ZM97.99,241.82c-.12-1.24-.54-1.73-1.47-1.73s-1.44.56-1.61,1.73h3.09Z"/>
            <path class="cls-1" d="M100.87,239.51c.81-.32,1.44-.45,2.2-.45,1.66,0,2.39.8,2.39,2.59v3.85h-1.07v-.5c-.56.44-1.06.6-1.86.6-1.38,0-2.25-.78-2.25-2.02,0-1.4,1.12-2.07,3.42-2.07h.67c-.04-1.05-.39-1.43-1.36-1.43-.65,0-1.17.13-1.87.46l-.27-1.04ZM104.37,242.52h-.67c-1.62,0-2.27.32-2.27,1.12,0,.63.4.95,1.21.95.76,0,1.2-.16,1.73-.61v-1.46Z"/>
            <path class="cls-1" d="M110.91,240.16c-.19-.02-.25-.04-.4-.04-.52,0-.86.11-1.26.42-.39.29-.63.57-.91,1.09v3.87h-1.09v-6.33h1.07v1.08c.57-.83,1.21-1.19,2.17-1.19.21,0,.28,0,.51.02l-.09,1.07Z"/>
            <path class="cls-1" d="M116.75,244.87c-.69.53-1.31.73-2.17.73-1.92,0-3.11-1.23-3.11-3.23s1.2-3.31,3.12-3.31c.89,0,1.4.2,2.14.88l-.74.85c-.56-.54-.9-.7-1.5-.7-1.21,0-1.88.78-1.88,2.24s.69,2.26,1.96,2.26c.59,0,.98-.14,1.58-.58l.6.87Z"/>
            <path class="cls-1" d="M119.04,245.5h-1.09v-9.04h1.09v3.24c.66-.48,1.09-.64,1.77-.64.83,0,1.49.33,1.86.93.25.43.35.91.35,1.78v3.74h-1.09v-3.71c0-.67-.05-1.01-.21-1.25-.19-.31-.53-.46-1-.46-.63,0-1.13.22-1.67.74v4.68Z"/>
            <path class="cls-1" d="M132.33,245.5h-1.09v-6.33h1.07v.53c.67-.48,1.11-.64,1.78-.64.84,0,1.51.32,1.87.93.25.43.35.91.35,1.78v3.74h-1.1v-3.71c0-.67-.05-1.01-.2-1.25-.19-.31-.54-.46-1-.46-.63,0-1.14.22-1.67.74v4.68Z"/>
            <path class="cls-1" d="M141.51,240.63c-.63-.41-1.07-.55-1.66-.55-.74,0-1.16.29-1.16.78,0,.46.27.66,1.31.93.84.22,1.18.35,1.52.59.41.29.62.72.62,1.27,0,1.22-.93,1.95-2.47,1.95-.95,0-1.65-.21-2.35-.74l.49-.97c.69.51,1.17.69,1.93.69.89,0,1.32-.28,1.32-.86,0-.5-.3-.7-1.32-.95-1.56-.4-2.14-.89-2.14-1.85,0-1.12.93-1.86,2.35-1.86.77,0,1.28.15,2.05.61l-.49.96Z"/>
            <path class="cls-1" d="M146.97,240.17h-1.6v3.55c0,.67.15.86.69.86.28,0,.45-.02.81-.12l.13,1.02c-.34.09-.6.13-1,.13-1.22,0-1.71-.53-1.71-1.83v-3.61h-1.26v-1h1.26v-1.94h1.09v1.94h1.6v1Z"/>
            <path class="cls-1" d="M149.78,237.96h-1.42v-1.34h1.42v1.34ZM149.62,245.5h-1.09v-6.33h1.09v6.33Z"/>
            <path class="cls-1" d="M155.03,240.17h-1.59v3.55c0,.67.14.86.69.86.28,0,.46-.02.81-.12l.13,1.02c-.34.09-.6.13-1,.13-1.22,0-1.71-.53-1.71-1.83v-3.61h-1.26v-1h1.26v-1.94h1.09v1.94h1.59v1Z"/>
            <path class="cls-1" d="M160.38,239.17h1.09v6.33h-1.07v-.49c-.64.45-1.07.59-1.74.59-.89,0-1.55-.32-1.91-.93-.25-.43-.35-.94-.35-1.78v-3.73h1.09v3.7c0,1.31.28,1.72,1.25,1.72.65,0,1.12-.18,1.64-.64v-4.78Z"/>
            <path class="cls-1" d="M166.76,240.17h-1.59v3.55c0,.67.14.86.69.86.28,0,.46-.02.81-.12l.13,1.02c-.34.09-.6.13-1,.13-1.22,0-1.71-.53-1.71-1.83v-3.61h-1.26v-1h1.26v-1.94h1.09v1.94h1.59v1Z"/>
            <path class="cls-1" d="M168.99,242.79c.13,1.23.73,1.79,1.92,1.79.61,0,.97-.13,1.65-.59l.58.88c-.75.55-1.35.73-2.29.73-1.93,0-3.04-1.19-3.04-3.25s1.08-3.29,2.85-3.29c1.23,0,2.07.61,2.43,1.79.15.47.21.95.22,1.94h-4.31ZM172.07,241.82c-.12-1.24-.54-1.73-1.47-1.73s-1.44.56-1.62,1.73h3.09Z"/>
          </g>
          <g>
            <path class="cls-1" d="M41.25,257.29c0,2.09-1.05,3.27-2.94,3.27s-2.95-1.15-2.95-3.3,1.09-3.24,2.94-3.24,2.94,1.19,2.94,3.27ZM36.52,257.33c0,1.5.58,2.21,1.8,2.21s1.79-.71,1.79-2.25-.57-2.25-1.79-2.25-1.8.7-1.8,2.29Z"/>
            <path class="cls-1" d="M46.1,252.5c-.52-.14-.63-.17-.89-.17-.71,0-.88.24-.88,1.18v.62h1.67v1h-1.67v5.33h-1.09v-5.33h-1.37v-1h1.37v-.61c0-1.5.62-2.21,1.94-2.21.37,0,.67.04,1.19.17l-.26,1.03Z"/>
            <path class="cls-1" d="M52.28,251.96c3,0,4.54,1.41,4.54,4.14s-1.56,4.36-4.43,4.36h-2.36v-8.5h2.25ZM52.39,259.37c2.16,0,3.24-1.08,3.24-3.25,0-2.05-1.11-3.08-3.35-3.08h-1.1v6.33h1.21Z"/>
            <path class="cls-1" d="M59.63,252.91h-1.42v-1.34h1.42v1.34ZM59.47,260.45h-1.09v-6.33h1.09v6.33Z"/>
            <path class="cls-1" d="M64.91,255.59c-.63-.41-1.07-.55-1.66-.55-.74,0-1.16.29-1.16.79,0,.46.27.66,1.31.93.84.22,1.18.35,1.52.59.41.29.62.72.62,1.27,0,1.22-.93,1.95-2.48,1.95-.95,0-1.65-.21-2.35-.74l.49-.97c.69.51,1.17.69,1.93.69.89,0,1.32-.28,1.32-.87,0-.49-.3-.7-1.32-.95-1.56-.39-2.14-.88-2.14-1.85,0-1.12.93-1.86,2.35-1.86.78,0,1.28.15,2.05.61l-.49.96Z"/>
            <path class="cls-1" d="M67.06,254.46c.81-.32,1.44-.45,2.21-.45,1.66,0,2.39.8,2.39,2.59v3.85h-1.07v-.5c-.56.44-1.06.6-1.86.6-1.39,0-2.25-.77-2.25-2.01,0-1.4,1.12-2.07,3.42-2.07h.67c-.05-1.05-.39-1.43-1.37-1.43-.65,0-1.17.13-1.87.46l-.27-1.04ZM70.57,257.47h-.67c-1.63,0-2.27.32-2.27,1.11,0,.63.4.95,1.21.95.76,0,1.2-.16,1.73-.61v-1.46Z"/>
            <path class="cls-1" d="M76.99,255.59c-.63-.41-1.07-.55-1.66-.55-.74,0-1.16.29-1.16.79,0,.46.27.66,1.31.93.84.22,1.18.35,1.52.59.42.29.62.72.62,1.27,0,1.22-.93,1.95-2.48,1.95-.95,0-1.65-.21-2.35-.74l.49-.97c.69.51,1.17.69,1.93.69.9,0,1.32-.28,1.32-.87,0-.49-.29-.7-1.32-.95-1.56-.39-2.14-.88-2.14-1.85,0-1.12.93-1.86,2.34-1.86.78,0,1.28.15,2.05.61l-.49.96Z"/>
            <path class="cls-1" d="M82.24,255.12h-1.6v3.55c0,.68.14.87.69.87.29,0,.46-.03.81-.12l.13,1.02c-.34.09-.6.12-1,.12-1.22,0-1.71-.53-1.71-1.83v-3.61h-1.25v-1h1.25v-1.94h1.09v1.94h1.6v1Z"/>
            <path class="cls-1" d="M84.27,257.74c.13,1.23.73,1.79,1.92,1.79.61,0,.97-.13,1.64-.6l.58.88c-.75.55-1.35.73-2.29.73-1.93,0-3.05-1.19-3.05-3.25s1.08-3.29,2.85-3.29c1.23,0,2.07.61,2.43,1.79.15.47.21.95.22,1.95h-4.31ZM87.35,256.77c-.12-1.24-.53-1.74-1.47-1.74s-1.44.56-1.61,1.74h3.09Z"/>
            <path class="cls-1" d="M93.73,255.11c-.19-.02-.25-.03-.4-.03-.53,0-.86.11-1.27.42-.39.29-.63.58-.91,1.09v3.87h-1.09v-6.33h1.07v1.08c.57-.83,1.21-1.19,2.17-1.19.21,0,.28,0,.51.02l-.09,1.07Z"/>
            <path class="cls-1" d="M102.43,253.71c-.83-.59-1.41-.79-2.26-.79-1.13,0-1.76.43-1.76,1.22,0,.35.1.59.33.79.25.22.98.48,1.8.66,1.92.38,2.71,1.11,2.71,2.47,0,1.55-1.23,2.5-3.22,2.5-1.29,0-2.13-.27-3.18-1.04l.63-1.04c.93.74,1.65,1.02,2.67,1.02,1.19,0,1.9-.51,1.9-1.36,0-.76-.47-1.1-1.92-1.46-1.17-.27-1.88-.55-2.29-.93-.44-.38-.65-.86-.65-1.5,0-1.48,1.17-2.41,3.02-2.41,1.1,0,1.86.23,2.74.82l-.54,1.04Z"/>
            <path class="cls-1" d="M109.55,259.83c-.69.53-1.31.73-2.17.73-1.92,0-3.11-1.23-3.11-3.23s1.2-3.31,3.12-3.31c.89,0,1.4.2,2.14.88l-.74.85c-.55-.55-.89-.7-1.5-.7-1.21,0-1.87.79-1.87,2.24s.69,2.26,1.95,2.26c.59,0,.98-.14,1.58-.57l.6.86Z"/>
            <path class="cls-1" d="M112.19,252.91h-1.42v-1.34h1.42v1.34ZM112.03,260.45h-1.09v-6.33h1.09v6.33Z"/>
            <path class="cls-1" d="M114.58,257.74c.13,1.23.73,1.79,1.92,1.79.61,0,.97-.13,1.65-.6l.58.88c-.75.55-1.35.73-2.29.73-1.93,0-3.04-1.19-3.04-3.25s1.08-3.29,2.85-3.29c1.23,0,2.07.61,2.43,1.79.15.47.21.95.21,1.95h-4.31ZM117.65,256.77c-.12-1.24-.53-1.74-1.47-1.74s-1.44.56-1.61,1.74h3.09Z"/>
            <path class="cls-1" d="M121.46,260.45h-1.09v-6.33h1.07v.53c.67-.48,1.12-.64,1.78-.64.84,0,1.51.32,1.87.93.26.43.35.91.35,1.78v3.74h-1.09v-3.7c0-.67-.05-1-.2-1.25-.19-.31-.54-.46-1.01-.46-.63,0-1.13.22-1.67.74v4.68Z"/>
            <path class="cls-1" d="M132.02,259.83c-.69.53-1.31.73-2.17.73-1.92,0-3.11-1.23-3.11-3.23s1.2-3.31,3.12-3.31c.9,0,1.4.2,2.14.88l-.74.85c-.56-.55-.9-.7-1.5-.7-1.21,0-1.87.79-1.87,2.24s.69,2.26,1.95,2.26c.59,0,.98-.14,1.58-.57l.6.86Z"/>
            <path class="cls-1" d="M134.02,257.74c.13,1.23.73,1.79,1.92,1.79.61,0,.97-.13,1.65-.6l.58.88c-.76.55-1.36.73-2.29.73-1.93,0-3.04-1.19-3.04-3.25s1.08-3.29,2.85-3.29c1.23,0,2.07.61,2.43,1.79.15.47.21.95.22,1.95h-4.31ZM137.1,256.77c-.12-1.24-.53-1.74-1.47-1.74s-1.44.56-1.62,1.74h3.09Z"/>
          </g>
        </g>
      </g>
    </g>
  </g>
</svg>