<?xml version="1.0" encoding="UTF-8"?>
<svg id="Layer_1" xmlns="http://www.w3.org/2000/svg" viewBox="0 0 198.42 268.25">
  <defs>
    <style>
      .cls-1 {
        fill: #3e1586;
      }
    </style>
  </defs>
  <g>
    <path class="cls-1" d="M37.3,263.18c0,2.9-1.77,5.06-5.16,5.06s-5.17-2.16-5.17-5.06v-7.53h2.68v7.43c0,1.51,1.05,2.64,2.49,2.64s2.47-1.13,2.47-2.64v-7.43h2.7v7.53h-.01Z"/>
    <path class="cls-1" d="M43.77,255.66h3.66l5.22,8.52h.02v-8.52h2.7v12.25h-3.54l-5.34-8.73h-.04v8.73h-2.68v-12.25Z"/>
    <path class="cls-1" d="M62.51,255.66h2.71v12.25h-2.71v-12.25Z"/>
    <path class="cls-1" d="M70.79,255.66h3.08l3.01,8.03h.06l3.07-8.03h2.91l-5.08,12.25h-2.15l-4.89-12.25h-.01Z"/>
    <path class="cls-1" d="M88.12,255.66h8.34v2.48h-5.63v2.29h5.31v2.49h-5.31v2.5h5.93v2.49h-8.64v-12.25Z"/>
    <path class="cls-1" d="M103.28,255.66h4.73c2.5,0,4.62.85,4.62,3.71,0,1.72-.91,3.07-2.66,3.37l3.12,5.18h-3.24l-2.55-4.9h-1.34v4.9h-2.69v-12.25h0ZM105.97,260.72h1.61c.98,0,2.26-.03,2.26-1.38,0-1.21-1.09-1.41-2.09-1.41h-1.77v2.79h-.01Z"/>
    <path class="cls-1" d="M124.96,258.65c-.45-.56-1.3-.82-1.96-.82-.77,0-1.83.35-1.83,1.27,0,2.23,5.66.79,5.66,5.1,0,2.73-2.19,4.05-4.74,4.05-1.56,0-2.96-.49-4.11-1.56l1.92-2.1c.56.73,1.46,1.14,2.35,1.14s1.86-.41,1.86-1.27c0-2.26-5.73-1.04-5.73-5.13,0-2.62,2.26-3.98,4.67-3.98,1.38,0,2.73.37,3.75,1.28l-1.85,2.02h0Z"/>
    <path class="cls-1" d="M133.5,255.66h2.71v12.25h-2.71v-12.25Z"/>
    <path class="cls-1" d="M145.43,258.04h-3.5v-2.38h9.72v2.38h-3.53v9.87h-2.7v-9.87h0Z"/>
    <path class="cls-1" d="M160.33,262.69l-4.58-7.03h3.35l2.59,4.58,2.76-4.58h3.2l-4.62,7.03v5.22h-2.7v-5.22Z"/>
  </g>
  <g>
    <path class="cls-1" d="M16.02,221.54h-7.48v-3.93h19.27v3.93h-7.46v20.45h-4.34v-20.45h.01Z"/>
    <path class="cls-1" d="M47.53,216.98c7.63-.13,13,4.98,13,12.8s-5.37,12.71-13,12.85c-7.51,0-12.88-5.11-12.88-12.72s5.37-12.94,12.88-12.94h0ZM47.57,238.69c5.06,0,8.4-3.86,8.4-9.06,0-4.86-3.34-8.72-8.4-8.72s-8.37,3.86-8.37,8.72c0,5.2,3.34,9.06,8.37,9.06Z"/>
    <path class="cls-1" d="M69.83,217.62h4.33v9.71h11.4v-9.71h4.35v24.38h-4.35v-10.74h-11.4v10.74h-4.33v-24.38Z"/>
    <path class="cls-1" d="M112.1,216.98c7.63-.13,12.99,4.98,12.99,12.8s-5.36,12.71-12.99,12.85c-7.51,0-12.89-5.11-12.89-12.72s5.38-12.94,12.89-12.94h0ZM112.14,238.69c5.06,0,8.41-3.86,8.41-9.06,0-4.86-3.34-8.72-8.41-8.72s-8.38,3.86-8.38,8.72c0,5.2,3.35,9.06,8.38,9.06Z"/>
    <path class="cls-1" d="M134.39,217.62h4.35v10.34h.2l10.1-10.34h5.85l-11.41,11.25,12.17,13.13h-6.1l-10.56-11.98h-.24v11.98h-4.35v-24.38h0Z"/>
    <path class="cls-1" d="M182.7,233.04c0,5.9-4.24,9.59-9.82,9.59s-9.82-3.69-9.82-9.59v-15.42h4.34v15.3c0,2.41,1.31,5.57,5.48,5.57s5.48-3.17,5.48-5.57v-15.3h4.34v15.42h0Z"/>
  </g>
  <path class="cls-1" d="M22.14,141.43c1.12,2.61,4.37,4.34,7.42,4.34,3.97,0,7.41-2.79,6.24-8.25-2.36.87-9.69,3.2-13.66,3.92h0ZM21.02,139.31c3.73-.55,10.65-2.85,13.66-3.99-2.42-3.57-6.31-4.95-9.01-4.95-3.59,0-5.83,4.01-4.66,8.94h.01ZM149.43,17.02c-8.31-5.37-18.99-7.38-25.72-7.38l-.87-1.07c8.07,0,20.35,3.02,27.09,7.83l-.5.62ZM18.25,143.1c3.52,4.19,6.12,14.81,2.69,17.81-2.37-5.43-2.69-11.64-2.69-17.81h0ZM16.41,143.03c-4.78,7.07-.87,15.46,2.35,17.84-2.53-6.03-2.9-13.09-2.35-17.84h0ZM23.42,38.83c-1.53.31-3.82,1.18-6.45,4.13-3.07,3.51-4.07,7.72-3.85,11,.87-2.32,5.8-10.57,10.3-15.13h0ZM14.89,54.69c1.25-.3,4.38-1.4,7.24-5.33,3.16-4.16,3.41-7.63,3.12-9.7-3.63,3.88-9.14,12.56-10.35,15.03h-.01ZM129.86,11.37c-.45-.1-5.37-1.12-6.83,1.96-.7,1.53-.48,4.83,3,6.48,1.03-2.8,2.61-6.18,3.83-8.45h0ZM131.97,12.05c-1.38,2.92-2.48,5.74-3.52,8.66,1.81.47,5.29.81,6.89-2.12,1-1.93.82-4.96-3.37-6.55h0ZM153.04,66.33c6.94,2.45,13.15,1.42,15.88-3.59,3.35-6.14.62-11.83-1.26-14.43-4.32,6.2-9.48,12.33-14.62,18.02h0ZM152.6,45.48c-5.77,4.1-6.11,12.6-2.21,18.34,4.85-5.6,9.91-11.37,14.75-17.78-.98-.75-7.7-3.97-12.54-.56h0ZM39.58,38.56c-.65-1.68-1.36-6.2,4.51-12.2,7.07-7.17,13.9-8.32,15.92-8.53-7.6,5.41-15.92,14.13-20.43,20.73h0ZM41.61,40.14c4.4-6.08,12.5-14.87,20.53-20.82.84,1.5,1.44,7.04-4.24,13.15-4.9,5.27-10.31,8.2-16.29,7.67h0ZM29.5,36.49c-1.42,1.47-2.49,3.62-2.49,5.6,0,4.38,6.25,2.6,7.02,1.79-1.67-2.08-3.36-4.3-4.53-7.39h0ZM35.58,42.2c1.3-1.88,2.01-4.49,2.01-6.19,0-2.2-1.85-2.38-2.7-2.38-1.42,0-3.1.64-4,1.44,1.38,2.75,3.01,5.1,4.69,7.13h0ZM45.57,18.35c11.36-6.73,22.31-8.31,22.19-8.18-7.23,5.99-19.14,9.62-22.19,8.18h0ZM72.98,13.92s9-2.8,13,3.95c2.85,4.52-1.15,11.98-4.63,13.65-2.84-5.78-5.72-11.54-8.37-17.6h0ZM70.59,14.98c2.55,6.23,5.33,11.79,8.23,17.46-4.45.75-11.09-.12-13.05-6.36-1.48-4.73,2.27-9.44,4.82-11.1h0ZM61.53,17.21C78.15,4.83,94.11,2.71,108.54,2.88v.82c-16.62-.42-32.47,4.08-45.43,14.29,0,0-1.58-.78-1.58-.78ZM68.2,7.9c-5.68.72-13.65,3.25-22.19,8.01,8.21-8.09,22.19-11.08,22.19-8.01h0ZM22.54,77.64c.41-2.56-.52-6.53-4.62-7.05-3.77-.31-6.1,4.01-7.16,6.84,3.8-.75,9.46-.23,11.79.22h-.01ZM8.49,87.07c.37,8.47,2.3,16.48,3.17,20.09-.94-.18-2.02-1.26-3.2-3.77-2.35-5.28-1.31-12.89.02-16.32h0ZM6.25,79.9c1.09,7.54.13,18.92-3.53,19.73.35-5.96,1.71-14.26,3.53-19.73h0ZM10.62,79.56c4.68-.75,10.65.1,11.71.3-1.06,2.5-3.33,6.75-6.79,6.75s-5.09-4.44-4.92-7.05h0ZM13.42,106.86c-.78-3.66-2.76-12.06-3.17-20.18,3.24,1.19,5.34,8.23,5.05,13.92-.18,2.6-.86,4.91-1.88,6.26h0ZM4.5,78.76c-4.94,5.05-5.16,14.84-3.73,20.03.43-6.67,1.7-13.02,3.73-20.03h0ZM4.5,102.55c1.23,19.52,9.44,33.57,19.44,45.68l.84-1.21c-9.62-11.22-18.21-25.61-19.4-44.47h-.89,0ZM186.85,113.78c-.27-6.16-1.97-12.41-3.56-15.67-2.11,2.3-2.74,4.85-2.74,7.26,0,3.88,2.21,7.69,6.3,8.41h0ZM154.33,164.27c4.23,0,12.92-6.18,17.53-16.51,4.73-10.52,3.04-17.89-.27-22.19-1.55,5.59-6.51,22.93-17.26,38.7h0ZM188.79,114.36c0,22.85-10.56,37.71-11.21,38.64l-.99-.22c5.59-8.82,11.17-23.21,10.85-37.78l1.35-.63h0ZM190.92,119.87c2.32-3.89,4.3-9.12,4.96-14.19-2.57,2.11-5.5,9.18-4.96,14.19h0ZM188.97,113.31c1.49-2.42,2.64-5.27,2.64-8.31,0-5.15-2.89-7.9-6.08-7.58,1.54,3.49,3.26,9.32,3.45,15.89h0ZM143.78,171.43c1.6-2.21,4.29-10.4-.74-15.95-6.82-7.7-21.44-6.45-26.4-2.14,8.41,6.4,17.6,12.21,27.15,18.09h0ZM114.38,155.91c-2.88,4.84-2.96,14.74,5.97,19.59,5.99,3.26,16.6,1.89,21.41-1.89-9.25-5.82-18.99-11.05-27.39-17.7h.01ZM176.21,157.65s-4.24-1.67-17.65,8.5c-5.69,4.31-8.53,8.13-9.15,10.33,9.24-3.67,19.86-11.58,26.8-18.82h0ZM177.64,159.31c-5.45,6.64-18.68,15.99-27.3,19.23,1.88.6,5.17,0,8.56-1.16,13.91-4.7,18.74-15.86,18.74-18.07h0ZM197.77,106.6c-.74,5.38-2.23,9.3-5.15,13.9,1.08-.42,3.6-1.52,5.15-6.02,1.09-3.17.62-6.6,0-7.87h0ZM154.58,18.88c-1.77.63-.81,9.71,14.92,21.44-3.78-9.24-9.11-16.42-14.92-21.44h0ZM172.05,39.88c.61-1.26,1.48-8.64-7.07-17.08-2.65-2.61-6.25-4.1-7.83-4.29.1,0,8.25,5.31,14.9,21.37h0ZM147.89,25.06c-12.31-5.91-18.18.31-18.18.31,3.2.71,15.75,3.36,28.9,10.32-3.05-5.47-6.18-8.43-10.72-10.62h0ZM140.69,40.54c8.32,2.79,14.36,1.74,17.67-1.83-12.5-6.65-26.28-9.69-29.42-10.34.41,3.69,3.57,9.37,11.76,12.17h0ZM129.85,6.34c.15-.9.87-2.23-4.25-4.5-2.65-1.18-6.31-1.84-7.83-1.84,3.91,1.53,8.2,3.73,12.08,6.34h0ZM115.35,4.11c5.18,2.48,9.97,2.85,11.66,2.72-3.44-2.27-7.51-4.43-12.35-6.3-2.33,0-2.57,2.01.69,3.57h0ZM24.27,149.15c-.57,2.3.3,7.35,3.51,11.55,3.43,4.33,6.38,6.66,10.02,7.82,0,0-8.42-8.64-13.53-19.37h0ZM40.05,167.58c-6.92-6.8-13.84-19.55-13.84-19.55,2.99,1.06,6.67,3.87,9.1,6.95,3.78,4.8,5.05,10.39,4.74,12.6h0ZM106.43,13.34c2.04,1.61,5.46,2.84,10.14,2.4,4.54-.44,6.33-4.21,6.14-5.23-6.39.44-11.51,1.67-16.28,2.84h0ZM12.94,57.39c-3.64,7.79-5.25,18.53-4.47,28.61l1.17-.59c-.9-7.43.1-18.47,4.1-27.83,0,0-.8-.19-.8-.19ZM152.69,165.81c-11.45,18.68-34.91,27.22-55.52,27.22-22.09,0-41.88-6.56-58.11-20.45l.62-.67c16.41,13.66,35.71,19.81,57.49,19.81,19.25,0,42.45-8.18,53.77-26.76l1.74.84h0ZM185.75,119.73c.18-3.57-1.91-5.57-3.8-5.57-2.94,0-5.89,2.83-6.85,5.57,3.24.22,7.69.22,10.65,0h0ZM174.94,122.09c-.21,3.17,1.83,5.89,4.78,5.89,3.48,0,5.19-3.22,5.94-6.06-3.4.18-7.24.38-10.72.18h0ZM121.97,8.89c-4.9-2.61-14.91-2.21-15.92,2.6,5.01-1.14,10-2.35,15.92-2.6h0ZM97.05,12.98c-3.25,3.23-2.48,7.66.81,7.66s3.59-3.63,2.78-5.55c-.57-1.46-.5-2.46.28-3.1,2.99-1.28,9.33-2.79,12.47-2.79l-.51-1.01c-3.51.21-9.46,1.53-12.88,2.77-2.14-.28-3.8-2.46-7.94-2.46-1.61,0-3.35.49-3.35,1.77,0,1.77,3.35,2.51,7.79,2.02l.55.68h0ZM194.96,101.47c3.26-25.78-13.6-53.03-34.5-64.48v2.06c16.16,8.19,33.71,31.41,33.71,56.45,0,2.28-.14,4.8-.26,5.97h1.05ZM42.06,21.67c-5.7,3.44-13.59,10.77-17.43,16.2l1.43.28c2.9-4.48,10.04-11.72,16.78-16.03l-.78-.45ZM33.05,122.46c1.63.96,3.92,3.38,3.92,5.52,0,1.45-.75,2.72-2.4,2.72-.98,0-2.54-.46-3.31-3.06-.7-2.52.25-4.76-.53-6.12-1.73-1.05-4.13-2.91-5.28-3.88l-.31.46c3.5,3.95,2.73,8.78.03,8.78-1.87,0-2.92-1.61-2.92-3.86,0-2.78,1.61-6.05,1.05-7.53-1.05-1.05-3.6-4.29-4.74-6.26l-.4.5c1.87,3.79,1.64,9.99-1.65,9.99s-3.19-4.06-2.19-7.01c.8-2.48,2.59-4.75,2.59-5.9-.6-1.13-2.42-4.17-2.77-5.97l.71-1.14c.34,1.74,2.16,5.11,2.76,5.98.89.47,2.44.23,4.14-.65,3.95-1.95,6.4.1,6.4,2.39,0,4.2-5.46,5.33-8.53.62l-.36.37c1.05,2.13,3.22,4.99,4.67,6.27,1.21.24,3.04-.68,4.79-2.36,2.49-2.42,5.15-.57,5.15,2.14s-3.26,4.14-7.42,1.87l-.39.49c1.52,1.27,3.22,2.8,5.02,3.59,1.83,0,2.85-1.08,4.32-2.54.83-.77,1.61-1.06,2.4-1.06,1.41,0,2.45,1.12,2.45,2.36,0,1.8-1.96,4.52-6.8,2.57l-.38.69-.02.03ZM90.67,172.21c1.9-.38,9.39-.72,9.39,3.22,0,1.81-1.47,3.12-3.06,3.12-4.1,0-6.01-5.23-8.88-5.61-1.53.18-6.43.35-8.44.41l.05.63c6.65,1.13,8.32,2.87,8.32,4.87,0,1.24-1,2.99-3.2,2.99-4.71,0-4.88-6.54-8.85-8.02-2.11,0-6.75-.53-8.86-.72l-.09.65c3.32,1.24,7.78,2.89,7.78,6.31,0,1.42-1.21,3.15-3.19,3.15-6.64,0-6.02-9.04-9.47-10.72-3.1-.63-6.8-1.87-9.35-2.76l-.28.71c4.19,1.73,6.76,4.07,6.76,6.33,0,1.83-1.19,3.1-2.91,3.1-6.08,0-4.93-9.52-7.08-11.41-5.99-2.52-10.22-5.35-13.46-7.59l.75-.83c2.5,1.7,6.73,4.75,12.72,6.96,3.5-.23,4.65-6.78,9.75-6.78,3.04,0,4.47,2,4.47,3.8,0,4.07-5.47,4.8-9.88,3.76l-.3.74c2.12.92,6.69,2.27,8.8,2.7.71-.13,2.15-.51,3.45-4.01.78-2.1,2.48-3.96,4.94-3.96s4.25,1.54,4.25,3.62c0,2.43-2.93,4.4-7.46,4.4l-.07.72c2.3.22,6.09.65,8.52.65,2.2-1.65,1.7-8.45,6.83-8.45,2.29,0,3.29,1.66,3.29,2.86,0,2.92-3.88,4.19-6.3,4.72l.06.62c1.58-.1,6.36-.16,8.26-.48,2.29-1.8,1.05-8.09,5.27-8.09,1.92,0,3.06,1.36,3.06,2.92,0,2.64-3.06,4.06-5.69,4.69l.11.78h-.01ZM87.83,60.15c-5.37.38-8.6,3.15-8.6,6.68,0,2.43,1.9,4,3.98,4,5.68,0,6.42-8.83,9.34-9.99,1.36,0,6.9,1.37,9,1.91,0,0-.18.63-.18.67-6.49-.44-10.69,2.01-10.69,6.11,0,2.73,2.03,4.32,4.48,4.32,5.43,0,5.93-8.69,11.17-9.85,1.36.43,8.31,3.26,9.77,3.89l-.38.76c-7.01-2.75-13.04.48-13.04,5,0,3.38,3.17,5.93,6.75,4.86,4.75-1.36,7.41-6.94,12.34-7.58,1.69.73,8.24,5.94,9.36,6.83l-.4.6c-3.01-1.46-10.29-3.76-13.45-1.02-5.13,4.4-1.79,12.16,5.38,11.22,5.36-.66,8.74-6.7,14.11-5.25,2.93,2.87,7,7.61,9.55,11.64l-.65.59c-3.12-2.61-6.27-6.61-12.16-6.61-4.06,0-7.54,2.39-7.54,7.11,0,4,4,6.77,8.44,6.79,4.06.04,7.09-1.45,9.4-1.57,2.79-.14,4.78.2,6.46,1.02,1.82,2.31,4.98,10.51,5.85,13.79l-.7.33c-3.67-6.55-7.02-9.81-12.63-9.81-4.4,0-7.89,2.73-7.89,7.36,0,8.72,12.41,9.25,16.85,9.55,2.73.2,5.15.44,6.08,2.03.34,1.85.45,3.52.45,5.2-2.86,2.86-4.67,5.1-6.47,8.88-4.81,10.03-3.16,20.16,0,23.27,10.83-15.76,15.48-32.73,17.08-38.41-2.22,0-5.51,1.81-8.63,4.55-.13-1.64-.22-2.94-.42-4.55.54-2.43,2.96-4.88,7.59-8.98,4.53-4.08,6.54-8.47,6.54-12.04,0-4.32-3.05-6.94-6.8-6.94-6.56,0-9.13,9.33-8.29,19.11l-.74.13c-1.4-4.51-4.03-11.03-6.34-14.96.19-1.83.66-3.34,2.01-5.56.97-1.49,5.92-7.66,5.92-12.81,0-3.97-2.41-7.56-6.94-7.56-4.22,0-7.43,3.82-7.43,8.45,0,3.51,1.62,7.17,3.23,10.26l-.83.52c-3.24-5.06-6.55-8.74-9.63-12.01-1.99-4.24,3.19-10.06,3.19-16.05,0-6.74-8.47-9.53-12.16-3.91-2.64,3.99.19,10.52,3.67,13.86l-.54.59c-2.76-2.36-7.56-5.87-10.21-7.45-2.13-3.67.84-9.5-.53-13.73-.87-2.65-3.14-3.9-5.37-3.9-2.84,0-5.67,2.05-5.67,5.68s2.36,5.9,6.51,8.6l-.37.71c-2.2-.93-8.16-3.56-10.18-4.28-2.87-3.16.68-13.71-6.86-13.71-2.63,0-4.65,2.04-4.65,4.93,0,3.5,2.42,5.45,7.2,7.18l-.21.67c-1.16-.4-5.68-1.5-9.01-2.05-4.63-3.16-2.89-10.33-9-10.33-2.41,0-4.22,2.16-4.22,4.22,0,3.11,2.33,5.21,8.24,6.05l-.17.95.04.04ZM93.13,39.42c-2.11,1.45-4.38,3.6-4.38,5.81s1.59,2.95,2.65,2.95c5.23,0,2.45-6.95,4.18-9.9.84-.61,4.05-2.02,4.9-2.36l.23.5c-2.17,1.61-3.29,3.45-3.29,5.14,0,2.02,1.62,3.27,3.17,3.27,4.96,0,2.2-7.6,3.94-10.13,2-.73,4.54-1.37,6.07-1.7l.16.56c-2.95,1.41-4.38,3.02-4.38,5.48,0,1.79,1.37,3.07,3.36,3.07,2.73,0,3.72-3.34,4.24-6.16.44-2.24.69-3.24,1.29-3.89,1.45-.24,5.58-.85,7.27-1.07,0-.03.12.59.12.59-3.55,1.13-6.19,3.44-6.19,6.34,0,1.85,1.53,3.69,4.04,3.69,5.83,0,4.04-8.48,7.38-10.8l3.88-.11.1-1.45c-1.55,0-2.83,0-4.41.09-2.52-.95-3.63-8.72-9.73-8.72-1.91,0-3.67,1.45-3.67,3.66,0,3.03,3.13,4.77,8.41,4.77v.66c-2.2.18-5.43.65-7.42.96-3.5-.71-5.46-6.82-9.98-6.77-1.9,0-3.64,1.3-3.64,3.58,0,3.48,3.84,4.1,8.75,3.85l.1.55c-2,.45-4.91,1.25-6.81,1.87-2.95-.43-4.74-4.87-8.53-4.87-1.93,0-3.47,1.3-3.47,3.18,0,3.02,3.6,3.99,8.56,2.57l.21.57c-1.79.72-4.59,1.91-5.33,2.3-1.46.31-3-.27-4.16-.89-1.67-.97-2.8-1.59-4.47-1.59-1.8,0-3.11,1.17-3.11,2.85,0,1.59,1.44,2.82,3.86,2.82,1.52,0,4.68-1.08,5.84-1.81l.27.54h-.01ZM50.24,111.01c5.22,6.73,2.69,11.33-1.2,11.33-2.66,0-3.82-2.3-3.82-4.16,0-3.48,3.41-7.26,3.54-9.18-.94-1.5-2.94-4.87-4.02-7.54l-.55.34c.62,5.45-.43,9.96-4.71,9.96-1.9,0-3.82-1.94-3.82-4.42,0-5.87,7.02-7.63,6.65-10.92-.88-1.83-2.3-5.81-2.95-8.66l-.72.09c-.13,5.78-1.9,10.49-5.5,10.49-2.32,0-4.42-1.65-4.42-4.93,0-2.95,2.54-5.99,4.92-8.13,2.61-2.4,3.45-3.32,3.93-5.43-.36-3.62-.3-6.7-.2-10.21l-.84-.07c-.85,4.94-3.76,11.18-8.58,9.62-2.01-.64-2.87-2.45-2.87-4.65,0-3.54,2.57-7.44,8.72-10.12,1.76-.81,2.94-1.6,3.57-3.18.56-4.88,1.36-7.59,2.29-11.16l-.82-.18c-2.91,7.48-6.32,9.93-9.79,9.93-1.89,0-3.36-1.15-3.83-2.36-1.57-3.97,2.67-7.74,7.61-9.74,3.38-1.38,6.76-2.18,8.63-4.16,1.06-2.95,2.51-6.08,2.61-6.2l1.36.65c-.09.1-1.61,3.83-2.1,5.65.86,2.2,5.62,3.16,8.86,6.11,4.54,4.1,1.26,10.08-3.16,10.08-4.72,0-7.01-4.79-6.98-9.3l-.76-.11c-.85,3.24-1.79,6.55-2.1,10.63,1.15,3.59,8.47,3.29,11.79,7.42,3.13,3.93.16,9.05-3.75,9.05-4.93,0-6.89-5.3-7.54-7.93l-.85.09c-.11,2.86-.11,6.89.34,9.96,1.11,1.65,3.89,1.93,6.64,2.33,5.45.81,7.46,3.07,7.46,5.86,0,2.43-1.76,4.86-4.26,4.86-2.86,0-5.85-1.77-7.72-5.53l-.7.25c.34,1.61,1.84,6.68,2.84,8.47,2.1,1.45,5.67.09,8.4.09s5.65,1.25,5.65,4.41c0,2.1-1.56,4.21-4.1,4.21-2.3,0-5.77-2.16-7.04-4.06l-.59.37c.8,1.8,2.63,5.49,3.88,7.29,3.88.53,4.68-1.39,8.15-1.39,1.67,0,4.16,1.11,4.16,3.78,0,1.77-1.7,3.88-4.16,3.88-3.1,0-5.36-2.41-6.79-4.05l-.75.59v-.02ZM181.79,81.47c-1.18-2.72-2.77-4.75-3.41-5.86-.28-1.89,1.35-4.18,1.35-7.1,0-1.85-.93-3.17-2.17-3.17-2.95,0-2.92,4.94-.47,9.1l-.36.24c-1.16-1.26-2.95-2.54-5.03-2.54-1.92,0-3,1.21-3,2.75,0,1.22.83,2.72,3.4,2.72,2.36,0,3.63-1.65,5.59-1.22,1.42,1.74,2.32,3.42,3.38,5.55l-.46.43c-1.5-1.41-3.07-2.44-5.36-2.44-1.75,0-3.15,1.3-3.15,3.07,0,2.84,3.08,3.03,5.39,2.18,1.43-.58,3.7-1.22,4.55-.69.81,1.19,1.96,4.09,2.69,6.38l-.52.41c-1.69-2.05-3.76-2.63-5.51-2.63-2.32,0-3.9,1.3-3.9,3.29,0,2.26,2.18,3.38,4.29,3.38,3.26,0,5.43-1.83,6.39-1.37.39,1.37.43,1.03,1.27,5.12l1.17-.21c-.34-1.99-.62-3.35-1.17-5.27,0-.64.74-1.47,1.33-2.31,2.66-3.79,2.98-8.84.31-8.84-2.41,0-2.54,4.71-2.2,7.79l-.52.19c-.53-1.91-2.03-5.46-2.45-6.67.39-1.07.74-1.45,1.55-3.34,1.61-3.75,1.61-7.54-.59-7.54s-2.66,5.05-1.8,8.34l-.59.25h0ZM16.73,58.51c-.79,1.98-4.14,4.44-4.14,8.73,0,.75.53,1.42,1.15,1.42,1.86,0,2.94-4.83,3.14-7.48l.74-.45c.09,1.73,1.38,2.69,2.7,2.69,1.82,0,3.32-1.46,3.32-3.72,0-1.09-.56-1.83-1.59-1.77-1.26.1-3.31,1.31-3.84.04,0-2.7.88-5.96,2.58-9.6h-1.18c-1.55,3.17-2.59,7.05-2.88,10.15h0Z"/>
</svg>